<svg width="64" height="64" viewBox="0 0 64 64" fill="none" xmlns="http://www.w3.org/2000/svg">
  <defs>
    <linearGradient id="bg" x1="0" y1="0" x2="64" y2="64" gradientUnits="userSpaceOnUse">
      <stop stop-color="#0b0d1d"/>
      <stop offset="1" stop-color="#14163a"/>
    </linearGradient>
    <linearGradient id="strand" x1="32" y1="10" x2="32" y2="54" gradientUnits="userSpaceOnUse">
      <stop stop-color="#d6d4fb"/>
      <stop offset="1" stop-color="#7c6cf7"/>
    </linearGradient>
  </defs>

  <rect width="64" height="64" rx="16" fill="url(#bg)"/>
  <rect x="1" y="1" width="62" height="62" rx="15" stroke="#7c6cf7" stroke-opacity="0.35" stroke-width="2"/>

  <g transform="rotate(16 32 32)" stroke-linecap="round">
    <g stroke-width="3.4">
      <path d="M25.5 18.5 L38.5 18.5" stroke="#dcdafb"/>
      <path d="M22 22.5 L42 22.5" stroke="#8a88e3"/>
      <path d="M25.5 26.5 L38.5 26.5" stroke="#dcdafb"/>
      <path d="M25.5 37.5 L38.5 37.5" stroke="#8a88e3"/>
      <path d="M22 41.5 L42 41.5" stroke="#dcdafb"/>
      <path d="M25.5 45.5 L38.5 45.5" stroke="#8a88e3"/>
    </g>
    <path d="M32 12 C 20 18.5, 20 24.5, 32 32 C 44 39.5, 44 45.5, 32 52" stroke="#5957b0" stroke-width="4.2" opacity="0.85" fill="none"/>
    <path d="M32 12 C 44 18.5, 44 24.5, 32 32 C 20 39.5, 20 45.5, 32 52" stroke="url(#strand)" stroke-width="4.2" fill="none"/>
    <circle cx="32" cy="12" r="2.4" fill="#d6d4fb"/>
    <circle cx="32" cy="52" r="2.4" fill="#6361c6"/>
  </g>
</svg>
